<svg width="869" height="357" viewBox="0 0 869 357" fill="none" xmlns="http://www.w3.org/2000/svg">
<path fill-rule="evenodd" clip-rule="evenodd" d="M100.287 195.029V174.969H157.538C161.012 174.969 163.93 172.183 163.93 168.561V162.71C163.93 159.228 161.012 156.302 157.538 156.302H120.019C107.652 156.302 97.5078 146.133 97.5078 133.735V120.083C97.5078 107.546 107.652 97.5156 120.019 97.5156H181.439V117.576H123.91C120.436 117.576 117.518 120.362 117.518 123.844V129.834C117.518 133.317 120.436 136.242 123.91 136.242H161.429C173.796 136.242 183.94 146.412 183.94 158.81V172.462C183.94 184.86 173.796 195.029 161.429 195.029H100.287ZM217.955 195.029C205.31 195.029 195.027 184.721 195.027 172.044V120.501C195.027 107.824 205.31 97.5156 217.955 97.5156H281.459V117.576H221.012C217.816 117.576 215.037 120.362 215.037 123.566V168.979C215.037 170.511 215.732 172.044 216.844 173.158C217.955 174.273 219.484 174.969 221.012 174.969H281.459V195.029H217.955ZM295.859 97.5156V195.029H318.021V97.5156H295.859ZM429.948 126.328C429.948 110.438 417.027 97.5174 401.137 97.5174H352.38H332.434V195.031H352.38V155.139H391.408L412.218 195.031H434.38L412.373 152.856C422.701 148.468 429.948 138.229 429.948 126.328ZM352.38 115.247H401.137C407.254 115.247 412.218 120.211 412.218 126.328C412.218 132.445 407.254 137.409 401.137 137.409H352.38V115.247ZM439.915 165.112V127.436C439.915 110.948 453.345 97.5174 469.834 97.5174H537.429V117.463H469.834C464.338 117.463 459.861 121.94 459.861 127.436V137.409H528.564V155.139H459.861V165.112C459.861 170.608 464.338 175.085 469.834 175.085H537.429V195.031H469.834C453.345 195.031 439.915 181.601 439.915 165.112ZM572.907 195.031C560.725 195.031 550.732 184.862 550.732 172.464V97.5174H570.443V168.563C570.443 172.046 573.318 174.971 576.74 174.971H617.805C621.227 174.971 624.102 172.046 624.102 168.563V97.5174H643.813V172.464C643.813 184.862 633.821 195.031 621.638 195.031H572.907ZM654.892 97.5174V195.031H674.719V132.483L700.466 191.27H724.561L750.309 132.483V195.031H770.135V97.5174H742.874L712.583 168.424L682.154 97.5174H654.892Z" fill="#4B79A5"/>
<path d="M489.117 231.176H493.96L499.312 253.604H499.414L504.613 231.176H510.322L515.521 253.604H515.623L520.975 231.176H525.818L518.121 259.211H512.973L507.518 237.089H507.416L501.962 259.211H496.814L489.117 231.176Z" fill="#190023"/>
<path d="M473.989 259.978C471.271 259.978 468.858 259.367 466.751 258.143C464.678 256.92 463.064 255.204 461.909 252.995C460.787 250.752 460.227 248.153 460.227 245.196C460.227 242.24 460.804 239.64 461.96 237.397C463.115 235.155 464.712 233.438 466.751 232.249C468.824 231.026 471.203 230.414 473.887 230.414C476.402 230.414 478.662 230.958 480.667 232.045C482.706 233.099 484.303 234.628 485.458 236.633C486.614 238.638 487.191 240.999 487.191 243.718V246.725H465.069C465.239 249.444 466.122 251.67 467.72 253.403C469.317 255.136 471.407 256.002 473.989 256.002C475.926 256.002 477.591 255.527 478.985 254.575C480.412 253.59 481.414 252.264 481.992 250.599H486.936C486.563 252.434 485.764 254.066 484.541 255.493C483.351 256.886 481.839 257.99 480.004 258.806C478.169 259.588 476.164 259.978 473.989 259.978ZM482.4 242.8C482.4 240.286 481.652 238.264 480.157 236.735C478.662 235.172 476.623 234.39 474.04 234.39C471.458 234.39 469.419 235.172 467.923 236.735C466.428 238.264 465.511 240.286 465.171 242.8H482.4Z" fill="#190023"/>
<path d="M444.539 231.176H449.025V236.069H449.127C449.874 234.404 450.758 233.181 451.777 232.399C452.831 231.584 454.394 231.176 456.467 231.176H459.168V235.254H455.855C453.544 235.254 451.845 235.933 450.758 237.293C449.67 238.652 449.127 240.691 449.127 243.409V259.211H444.539V231.176Z" fill="#190023"/>
<path d="M431.506 256.819C428.584 258.926 425.169 259.98 421.261 259.98C418.101 259.98 415.195 259.249 412.544 257.788C409.894 256.293 407.77 254.152 406.173 251.365C404.61 248.545 403.828 245.215 403.828 241.375C403.828 237.535 404.61 234.221 406.173 231.435C407.77 228.614 409.894 226.474 412.544 225.012C415.195 223.517 418.101 222.77 421.261 222.77C424.421 222.77 427.327 223.517 429.977 225.012C432.628 226.474 434.735 228.614 436.298 231.435C437.895 234.221 438.694 237.535 438.694 241.375C438.694 246.404 437.317 250.601 434.565 253.965L437.827 257.227L434.871 260.184L431.506 256.819ZM408.773 241.375C408.773 244.467 409.316 247.101 410.404 249.275C411.525 251.416 413.02 253.03 414.889 254.118C416.792 255.205 418.916 255.749 421.261 255.749C423.911 255.749 426.273 255.052 428.346 253.659L423.911 249.225L426.868 246.268L431.252 250.652C432.917 248.239 433.749 245.147 433.749 241.375C433.749 238.282 433.189 235.666 432.067 233.525C430.98 231.35 429.485 229.719 427.582 228.631C425.713 227.544 423.606 227 421.261 227C418.916 227 416.792 227.544 414.889 228.631C413.02 229.719 411.525 231.35 410.404 233.525C409.316 235.666 408.773 238.282 408.773 241.375Z" fill="#190023"/>
<path d="M386.864 259.978C384.146 259.978 381.733 259.367 379.626 258.143C377.553 256.92 375.939 255.204 374.784 252.995C373.662 250.752 373.102 248.153 373.102 245.196C373.102 242.24 373.679 239.64 374.835 237.397C375.99 235.155 377.587 233.438 379.626 232.249C381.699 231.026 384.078 230.414 386.762 230.414C389.277 230.414 391.537 230.958 393.542 232.045C395.581 233.099 397.178 234.628 398.333 236.633C399.489 238.638 400.066 240.999 400.066 243.718V246.725H377.944C378.114 249.444 378.997 251.67 380.595 253.403C382.192 255.136 384.282 256.002 386.864 256.002C388.801 256.002 390.466 255.527 391.86 254.575C393.287 253.59 394.289 252.264 394.867 250.599H399.811C399.438 252.434 398.639 254.066 397.416 255.493C396.226 256.886 394.714 257.99 392.879 258.806C391.044 259.588 389.039 259.978 386.864 259.978ZM395.275 242.8C395.275 240.286 394.527 238.264 393.032 236.735C391.537 235.172 389.498 234.39 386.915 234.39C384.333 234.39 382.294 235.172 380.798 236.735C379.303 238.264 378.386 240.286 378.046 242.8H395.275Z" fill="#190023"/>
<path d="M344.477 231.179H348.962V236.429H349.064C349.914 234.526 351.137 233.048 352.734 231.994C354.331 230.941 356.2 230.414 358.341 230.414C361.332 230.414 363.659 231.451 365.325 233.523C366.99 235.596 367.822 238.553 367.822 242.393V259.214H363.235V242.851C363.235 239.963 362.674 237.856 361.553 236.531C360.431 235.172 358.885 234.492 356.914 234.492C354.705 234.492 352.836 235.29 351.307 236.888C349.812 238.485 349.064 240.864 349.064 244.024V259.214H344.477V231.179Z" fill="#190023"/>
<path d="M321.362 259.98C318.202 259.98 315.297 259.249 312.646 257.788C309.995 256.293 307.872 254.152 306.274 251.365C304.711 248.545 303.93 245.215 303.93 241.375C303.93 237.535 304.711 234.221 306.274 231.435C307.872 228.614 309.995 226.474 312.646 225.012C315.297 223.517 318.202 222.77 321.362 222.77C324.523 222.77 327.428 223.517 330.079 225.012C332.729 226.474 334.836 228.614 336.399 231.435C337.997 234.221 338.795 237.535 338.795 241.375C338.795 245.215 337.997 248.545 336.399 251.365C334.836 254.152 332.729 256.293 330.079 257.788C327.428 259.249 324.523 259.98 321.362 259.98ZM308.874 241.375C308.874 244.467 309.418 247.101 310.505 249.275C311.627 251.416 313.122 253.03 314.991 254.118C316.894 255.205 319.018 255.749 321.362 255.749C323.707 255.749 325.814 255.205 327.683 254.118C329.586 253.03 331.081 251.416 332.169 249.275C333.29 247.101 333.851 244.467 333.851 241.375C333.851 238.282 333.29 235.666 332.169 233.525C331.081 231.35 329.586 229.719 327.683 228.631C325.814 227.544 323.707 227 321.362 227C319.018 227 316.894 227.544 314.991 228.631C313.122 229.719 311.627 231.35 310.505 233.525C309.418 235.666 308.874 238.282 308.874 241.375Z" fill="#190023"/>
<path d="M271.022 259.977C268.745 259.977 266.604 259.399 264.599 258.244C262.594 257.088 260.98 255.406 259.757 253.197C258.534 250.955 257.922 248.287 257.922 245.195C257.922 242.102 258.534 239.452 259.757 237.243C260.98 235 262.594 233.301 264.599 232.146C266.604 230.99 268.745 230.413 271.022 230.413C273.401 230.413 275.525 231.024 277.394 232.248C279.263 233.437 280.622 235.068 281.471 237.141H281.573C281.505 236.427 281.471 235.408 281.471 234.083V219.402H286.059V259.212H281.522V256.307C281.522 254.981 281.539 253.962 281.573 253.248H281.471C280.622 255.321 279.263 256.969 277.394 258.193C275.525 259.382 273.401 259.977 271.022 259.977ZM262.713 245.195C262.713 247.302 263.104 249.188 263.886 250.853C264.701 252.484 265.823 253.758 267.25 254.676C268.677 255.559 270.308 256.001 272.143 256.001C273.978 256.001 275.609 255.559 277.037 254.676C278.464 253.758 279.568 252.484 280.35 250.853C281.132 249.188 281.522 247.302 281.522 245.195C281.522 243.088 281.132 241.219 280.35 239.588C279.568 237.923 278.464 236.648 277.037 235.765C275.609 234.847 273.978 234.388 272.143 234.388C270.308 234.388 268.677 234.847 267.25 235.765C265.823 236.648 264.701 237.923 263.886 239.588C263.104 241.219 262.713 243.088 262.713 245.195Z" fill="#190023"/>
<path d="M229.305 231.179H233.79V236.429H233.892C234.742 234.526 235.965 233.048 237.562 231.994C239.159 230.941 241.028 230.414 243.169 230.414C246.16 230.414 248.488 231.451 250.153 233.523C251.818 235.596 252.65 238.553 252.65 242.393V259.214H248.063V242.851C248.063 239.963 247.502 237.856 246.381 236.531C245.259 235.172 243.713 234.492 241.742 234.492C239.533 234.492 237.664 235.29 236.135 236.888C234.64 238.485 233.892 240.864 233.892 244.024V259.214H229.305V231.179Z" fill="#190023"/>
<path d="M217.059 231.178H221.646V259.213H217.059V231.178ZM217.008 221.238H221.697V225.928H217.008V221.238Z" fill="#190023"/>
<path d="M200.602 259.978C197.136 259.978 194.383 259.078 192.344 257.277C190.306 255.476 189.201 253.029 189.031 249.937H193.823C193.925 251.976 194.57 253.505 195.76 254.524C196.983 255.51 198.597 256.002 200.602 256.002C202.573 256.002 204.136 255.561 205.292 254.677C206.447 253.76 207.025 252.519 207.025 250.956C207.025 249.665 206.583 248.679 205.699 248C204.816 247.286 203.457 246.929 201.622 246.929H198.614C195.794 246.929 193.568 246.233 191.937 244.839C190.34 243.412 189.541 241.526 189.541 239.181C189.541 237.516 189.966 236.021 190.815 234.696C191.665 233.37 192.888 232.334 194.485 231.586C196.116 230.805 198.036 230.414 200.245 230.414C203.644 230.414 206.294 231.298 208.197 233.065C210.1 234.832 211.137 237.227 211.306 240.252H206.515C206.413 238.383 205.835 236.939 204.782 235.919C203.728 234.9 202.216 234.39 200.245 234.39C198.444 234.39 197 234.815 195.913 235.664C194.859 236.48 194.332 237.584 194.332 238.978C194.332 240.201 194.74 241.118 195.556 241.73C196.371 242.342 197.51 242.648 198.971 242.648H202.284C205.343 242.648 207.687 243.412 209.318 244.941C210.984 246.471 211.816 248.442 211.816 250.854C211.816 252.621 211.357 254.201 210.44 255.595C209.522 256.954 208.214 258.024 206.515 258.806C204.85 259.588 202.879 259.978 200.602 259.978Z" fill="#190023"/>
<path d="M160.062 231.176H164.548V236.069H164.65C165.398 234.404 166.281 233.181 167.301 232.399C168.354 231.584 169.917 231.176 171.99 231.176H174.692V235.254H171.379C169.068 235.254 167.369 235.933 166.281 237.293C165.194 238.652 164.65 240.691 164.65 243.409V259.211H160.062V231.176Z" fill="#190023"/>
<path d="M147.801 231.178H152.389V259.213H147.801V231.178ZM147.75 221.238H152.44V225.928H147.75V221.238Z" fill="#190023"/>
<path d="M97.5078 223.531H102.401L110.149 253.605H110.251L117.387 223.531H123.759L130.793 253.605H130.895L138.592 223.531H143.485L133.546 259.212H127.939L120.548 229.036H120.446L113.055 259.212H107.448L97.5078 223.531Z" fill="#190023"/>
</svg>
